HIERARCHY
ROOT root     
{
	OFFSET 0.0000 0.0000 0.0000
	CHANNELS 6 Xposition Yposition Zposition Zrotation Yrotation Xrotation
	JOINT pelvis   
	{
		OFFSET 0.0000 0.0000 0.0000
		CHANNELS 3 Zrotation Yrotation Xrotation
		JOINT thorax   
		{
			OFFSET 0.0000 23.0750 -5.0000
			CHANNELS 3 Zrotation Yrotation Xrotation
			JOINT rclavicle
			{
				OFFSET 0.0000 28.0009 0.0000
				CHANNELS 3 Zrotation Yrotation Xrotation
				JOINT rhumerus 
				{
					OFFSET -18.5725 5.5939 0.0000
					CHANNELS 3 Zrotation Yrotation Xrotation
					JOINT rradius  
					{
						OFFSET -24.8459 0.0000 0.0000
						CHANNELS 3 Zrotation Yrotation Xrotation
						JOINT rhand    
						{
							OFFSET -24.5477 0.0000 0.0000
							CHANNELS 3 Zrotation Yrotation Xrotation
							End Site
							{
								OFFSET -8.1826 0.0000 0.0000
							}
						}
					}
				}
			}
			JOINT lclavicle
			{
				OFFSET 0.0000 28.0009 0.0000
				CHANNELS 3 Zrotation Yrotation Xrotation
				JOINT lhumerus 
				{
					OFFSET 18.5725 5.5939 0.0000
					CHANNELS 3 Zrotation Yrotation Xrotation
					JOINT lradius  
					{
						OFFSET 24.8459 0.0000 0.0000
						CHANNELS 3 Zrotation Yrotation Xrotation
						JOINT lhand    
						{
							OFFSET 24.5477 0.0000 0.0000
							CHANNELS 3 Zrotation Yrotation Xrotation
							End Site
							{
								OFFSET 8.1826 0.0000 0.0000
							}
						}
					}
				}
			}
			JOINT head     
			{
				OFFSET 0.0000 35.2030 0.0000
				CHANNELS 3 Zrotation Yrotation Xrotation
				End Site
				{
					OFFSET 0.0000 11.7343 0.0000
				}
			}
		}
		JOINT rfemur   
		{
			OFFSET -8.2817 0.0000 0.0000
			CHANNELS 3 Zrotation Yrotation Xrotation
			JOINT rtibia   
			{
				OFFSET 0.0000 -43.3627 0.0000
				CHANNELS 3 Zrotation Yrotation Xrotation
				JOINT rfoot    
				{
					OFFSET 0.0000 -38.2947 0.0000
					CHANNELS 3 Zrotation Yrotation Xrotation
					JOINT rtoes    
					{
						OFFSET 0.0000 0.0000 16.6054
						CHANNELS 3 Zrotation Yrotation Xrotation
						End Site
						{
							OFFSET 0.0000 0.0000 5.5351
						}
					}
				}
			}
		}
		JOINT lfemur   
		{
			OFFSET 8.2817 0.0000 0.0000
			CHANNELS 3 Zrotation Yrotation Xrotation
			JOINT ltibia   
			{
				OFFSET 0.0000 -43.3627 0.0000
				CHANNELS 3 Zrotation Yrotation Xrotation
				JOINT lfoot    
				{
					OFFSET 0.0000 -38.2947 0.0000
					CHANNELS 3 Zrotation Yrotation Xrotation
					JOINT ltoes    
					{
						OFFSET 0.0000 0.0000 16.6054
						CHANNELS 3 Zrotation Yrotation Xrotation
						End Site
						{
							OFFSET 0.0000 0.0000 5.5351
						}
					}
				}
			}
		}
	}
}
MOTION
Frames: 9
Frame Time: .0333333
48.205 86.28 -9.4706 -175.498 66.0387 -157.614 0 -0 0 -7.03231 1.58751 -5.74513 18.2311 -9.87633 6.30255e-05 38.5231 9.22191 28.6246 -180 81.6829 -180 -0.1022 3.69989 -0.00329988 -24.2231 18.5648 -6.59137e-05 -40.8437 12.906 19.2775 -180 -83.2388 180 3.95088 2.04734 0.0706005 -9.10656 9.5333 -4.31479 -1.72961 -19.9283 2.24797 -0 -0 18.3444 2.7452e-06 2.12388 29.9472 1.06061 6.40246e-06 -86.0709 -17.8149 7.69965 -34.3113 -0 -0 16.6871 -8.85015e-07 5.93249 -1.30742 -0.135797 5.46143e-07 -36.6102 
49.526 85.836 -9.8335 -174.613 65.6247 -156.802 0 -0 0 -7.25911 1.68095 -5.94165 18.5167 -10.0367 5.8839e-05 37.5088 9.60917 28.2507 -180 80.6017 -180 -0.0535004 3.82095 -0.00180002 -23.986 18.4663 -8.1548e-05 -41.361 13.5995 18.8821 -180 -83.0841 180 3.93979 1.87107 0.0643981 -7.8486 9.35767 -4.57887 -1.70496 -20.1086 2.71168 -0 -0 19.337 -2.33175e-05 3.8225 30.3688 1.93469 -2.51024e-05 -86.6048 -18.0816 7.90844 -34.5385 -0 -0 16.2228 9.48923e-07 5.69791 -1.29617 -0.129302 -7.08543e-07 -34.1314 
50.828 85.361 -10.209 -173.815 65.236 -156.064 0 -0 0 -7.51722 1.70253 -6.14006 18.8789 -10.1642 -1.49017e-05 36.4775 10.0308 27.7966 -180 79.5979 -180 0.00740009 3.99535 0.000300004 -23.7848 18.3503 -3.52552e-05 -41.902 14.2996 18.4049 180 -82.9391 180 3.92766 1.68734 0.0578993 -6.51671 9.24019 -4.87898 -1.77071 -20.3183 3.01289 -0 -0 20.6396 -3.48113e-05 5.77875 30.7992 2.96635 -4.22728e-06 -87.1101 -18.1095 7.77176 -34.8293 -0 -0 16.3826 -1.95369e-06 5.75574 -1.50253 -0.151403 -9.02191e-07 -30.5435 
52.104 84.863 -10.599 -173.133 64.8729 -155.423 0 -0 0 -7.8055 1.63745 -6.33072 19.2968 -10.2496 -1.7526e-06 35.4654 10.4827 27.2665 -180 78.6951 -180 0.0925011 4.21906 0.00340003 -23.6408 18.228 -3.76072e-05 -42.4548 14.9674 17.8537 180 -82.8357 -180 3.93131 1.50992 0.0518028 -5.12987 9.18403 -5.20915 -1.94183 -20.5887 3.14071 -0 -0 22.2547 -1.94939e-05 7.90592 31.2607 4.12181 8.33424e-05 -87.463 -17.9178 7.30813 -35.2005 -0 -0 17.1922 9.43791e-07 6.07126 -1.97819 -0.210398 2.95371e-07 -25.8602 
53.351 84.351 -11.008 -172.561 64.5298 -154.882 0 -0 0 -8.10859 1.48312 -6.49825 19.7398 -10.2867 -6.76591e-05 34.5179 10.9562 26.6671 -180 77.9042 -180 0.211601 4.48199 0.00830009 -23.5685 18.1117 4.34038e-05 -43.0085 15.556 17.242 -180 -82.809 180 3.97473 1.35507 0.0469991 -3.71397 9.18838 -5.56025 -2.22168 -20.9405 3.09952 -0 -0 24.16 -4.55186e-05 10.0741 31.7987 5.34832 -2.55218e-05 -87.8771 -17.5636 6.60199 -35.6755 -0 -0 18.6589 8.63233e-07 6.54864 -2.75346 -0.315999 1.33898e-06 -20.2111 
54.567 83.832 -11.436 -172.077 64.2085 -154.431 0 -0 0 -8.39621 1.25111 -6.62342 20.1707 -10.2738 -1.09613e-05 33.6858 11.4378 26.0112 -180 77.2512 -180 0.370095 4.76813 0.0153999 -23.583 18.009 8.63264e-05 -43.5571 16.0234 16.5958 -180 -82.8877 180 4.08809 1.24072 0.0442993 -2.29962 9.24899 -5.92024 -2.59974 -21.3716 2.90425 -0 -0 26.3378 -0.000154486 12.1296 32.4288 6.57475 5.9826e-05 -88.006 -17.1108 5.77961 -36.254 -0 -0 20.742 -1.997e-06 7.06956 -3.81291 -0.47249 1.12162e-06 -13.9457 
55.757 83.314 -11.885 -171.648 63.9115 -154.058 0 -0 0 -8.6413 0.964824 -6.68694 20.5531 -10.2134 6.64546e-05 33.0157 11.9143 25.3169 -180 76.7423 -180 0.568004 5.05688 0.0251003 -23.6899 17.925 0.000144624 -44.0972 16.3288 15.939 180 -83.1089 180 4.30417 1.18326 0.0444993 -0.916688 9.35725 -6.27454 -3.06334 -21.8676 2.57935 -0 -0 28.7457 -5.67641e-05 13.9001 33.1714 7.71165 -4.01815e-05 -87.9093 -16.6156 4.95174 -36.8984 -0 -0 23.3209 2.69447e-06 7.54785 -5.08496 -0.672906 -2.40826e-07 -7.63764 
56.924 82.81 -12.359 -171.262 63.6496 -153.766 0 -0 0 -8.83224 0.653117 -6.67561 20.8659 -10.1123 -4.21066e-05 32.5467 12.3697 24.6026 -180 76.3773 -180 0.798696 5.32527 0.0371001 -23.8884 17.8604 7.2565e-05 -44.6269 16.4406 15.3064 -180 -83.4865 180 4.6539 1.19766 0.0486984 0.411099 9.50048 -6.60597 -3.60681 -22.4042 2.14933 -0 -0 31.3397 -1.41864e-05 15.2166 34.0424 8.65798 9.47214e-06 -87.6018 -16.1249 4.18845 -37.5306 -0 -0 26.1996 5.75639e-07 7.95182 -6.46772 -0.901397 3.39649e-07 -1.91279 
58.068 82.333 -12.866 -170.936 63.4286 -153.579 0 -0 0 -8.97972 0.344599 -6.58842 21.1038 -9.98136 -8.7974e-05 32.2974 12.7862 23.891 -180 76.1611 -180 1.04898 5.54911 0.0507989 -24.1703 17.808 7.00858e-05 -45.1356 16.3396 14.726 180 -84.0522 180 5.16362 1.29497 0.058399 1.67044 9.66267 -6.89675 -4.23212 -22.9515 1.62506 -0 -0 34.0773 -3.0774e-05 15.9304 35.0213 9.30285 4.00497e-06 -86.9558 -15.6803 3.52066 -38.0622 -0 -0 29.1492 4.9672e-06 8.29078 -7.87435 178.856 -6.4051e-07 -2.80036 
